{"asset":{"version":"2.0","generator":"soundshed-guitar generate-amp-models.js (toggle switch)"},"scene":0,"scenes":[{"nodes":[0,1]}],"nodes":[{"name":"SwitchBase","mesh":0,"extras":{"uvMode":"meters","materialSlot":"ChromeTrim"},"children":[2]},{"name":"SwitchCollar","mesh":1,"extras":{"uvMode":"meters","materialSlot":"ChromeTrim"}},{"name":"SwitchLever","mesh":2,"translation":[0,0,0.009],"extras":{"uvMode":"meters","materialSlot":"ChromeTrim"}}],"meshes":[{"name":"SwitchBaseMesh","primitives":[{"attributes":{"POSITION":0,"NORMAL":1,"TEXCOORD_0":2},"indices":3,"material":0}]},{"name":"SwitchCollarMesh","primitives":[{"attributes":{"POSITION":4,"NORMAL":5,"TEXCOORD_0":6},"indices":7,"material":0}]},{"name":"SwitchLeverMesh","primitives":[{"attributes":{"POSITION":8,"NORMAL":9,"TEXCOORD_0":10},"indices":11,"material":0}]}],"accessors":[{"bufferView":0,"componentType":5126,"count":30,"type":"VEC3","min":[-0.009499999694526196,-0.008227241225540638,0],"max":[0.009499999694526196,0.008227241225540638,0.006000000052154064]},{"bufferView":1,"componentType":5126,"count":30,"type":"VEC3"},{"bufferView":2,"componentType":5126,"count":30,"type":"VEC2"},{"bufferView":3,"componentType":5123,"count":72,"type":"SCALAR"},{"bufferView":4,"componentType":5126,"count":102,"type":"VEC3","min":[-0.007199999876320362,-0.007199999876320362,0.006000000052154064],"max":[0.007199999876320362,0.007199999876320362,0.009999999776482582]},{"bufferView":5,"componentType":5126,"count":102,"type":"VEC3"},{"bufferView":6,"componentType":5126,"count":102,"type":"VEC2"},{"bufferView":7,"componentType":5123,"count":288,"type":"SCALAR"},{"bufferView":8,"componentType":5126,"count":359,"type":"VEC3","min":[-0.0034000000450760126,-0.0034000000450760126,0],"max":[0.0034000000450760126,0.0034000000450760126,0.014399999752640724]},{"bufferView":9,"componentType":5126,"count":359,"type":"VEC3"},{"bufferView":10,"componentType":5126,"count":359,"type":"VEC2"},{"bufferView":11,"componentType":5123,"count":1680,"type":"SCALAR"}],"bufferViews":[{"buffer":0,"byteOffset":0,"byteLength":360,"target":34962},{"buffer":0,"byteOffset":360,"byteLength":360,"target":34962},{"buffer":0,"byteOffset":720,"byteLength":240,"target":34962},{"buffer":0,"byteOffset":960,"byteLength":144,"target":34963},{"buffer":0,"byteOffset":1104,"byteLength":1224,"target":34962},{"buffer":0,"byteOffset":2328,"byteLength":1224,"target":34962},{"buffer":0,"byteOffset":3552,"byteLength":816,"target":34962},{"buffer":0,"byteOffset":4368,"byteLength":576,"target":34963},{"buffer":0,"byteOffset":4944,"byteLength":4308,"target":34962},{"buffer":0,"byteOffset":9252,"byteLength":4308,"target":34962},{"buffer":0,"byteOffset":13560,"byteLength":2872,"target":34962},{"buffer":0,"byteOffset":16432,"byteLength":3360,"target":34963}],"buffers":[{"byteLength":19792,"uri":"amp-switch.bin"}],"materials":[{"name":"ChromeTrim","pbrMetallicRoughness":{"baseColorFactor":[0.78,0.79,0.82,1],"metallicFactor":1,"roughnessFactor":0.16}}]}
