{"asset":{"version":"2.0","generator":"soundshed-guitar generate-amp-models.js (knob)"},"scene":0,"scenes":[{"nodes":[0,1,2,3]}],"nodes":[{"name":"KnobSkirt","mesh":0,"extras":{"uvMode":"meters","materialSlot":"KnobBody"}},{"name":"KnobShoulder","mesh":1,"extras":{"uvMode":"meters","materialSlot":"KnobBody"}},{"name":"KnobEdge","mesh":2,"extras":{"uvMode":"meters","materialSlot":"KnobBody"}},{"name":"KnobPointer","mesh":3,"extras":{"uvMode":"meters","materialSlot":"KnobPointer"}}],"meshes":[{"name":"KnobSkirtMesh","primitives":[{"attributes":{"POSITION":0,"NORMAL":1,"TEXCOORD_0":2},"indices":3,"material":0}]},{"name":"KnobShoulderMesh","primitives":[{"attributes":{"POSITION":4,"NORMAL":5,"TEXCOORD_0":6},"indices":7,"material":0}]},{"name":"KnobEdgeMesh","primitives":[{"attributes":{"POSITION":8,"NORMAL":9,"TEXCOORD_0":10},"indices":11,"material":0}]},{"name":"KnobPointerMesh","primitives":[{"attributes":{"POSITION":12,"NORMAL":13,"TEXCOORD_0":14},"indices":15,"material":1}]}],"accessors":[{"bufferView":0,"componentType":5126,"count":148,"type":"VEC3","min":[-0.0215000007301569,-0.0215000007301569,0],"max":[0.0215000007301569,0.0215000007301569,0.014000000432133675]},{"bufferView":1,"componentType":5126,"count":148,"type":"VEC3"},{"bufferView":2,"componentType":5126,"count":148,"type":"VEC2"},{"bufferView":3,"componentType":5123,"count":432,"type":"SCALAR"},{"bufferView":4,"componentType":5126,"count":148,"type":"VEC3","min":[-0.020855000242590904,-0.020855000242590904,0.014000000432133675],"max":[0.020855000242590904,0.020855000242590904,0.019999999552965164]},{"bufferView":5,"componentType":5126,"count":148,"type":"VEC3"},{"bufferView":6,"componentType":5126,"count":148,"type":"VEC2"},{"bufferView":7,"componentType":5123,"count":432,"type":"SCALAR"},{"bufferView":8,"componentType":5126,"count":539,"type":"VEC3","min":[-0.02095000073313713,-0.02095000073313713,0.018478309735655785],"max":[0.02095000073313713,0.02095000073313713,0.021521691232919693]},{"bufferView":9,"componentType":5126,"count":539,"type":"VEC3"},{"bufferView":10,"componentType":5126,"count":539,"type":"VEC2"},{"bufferView":11,"componentType":5123,"count":2880,"type":"SCALAR"},{"bufferView":12,"componentType":5126,"count":216,"type":"VEC3","min":[-0.00139999995008111,-0.007629842031747103,0.0178526584059],"max":[0.00139999995008111,0.02568984217941761,0.021347342059016228]},{"bufferView":13,"componentType":5126,"count":216,"type":"VEC3"},{"bufferView":14,"componentType":5126,"count":216,"type":"VEC2"},{"bufferView":15,"componentType":5123,"count":900,"type":"SCALAR"}],"bufferViews":[{"buffer":0,"byteOffset":0,"byteLength":1776,"target":34962},{"buffer":0,"byteOffset":1776,"byteLength":1776,"target":34962},{"buffer":0,"byteOffset":3552,"byteLength":1184,"target":34962},{"buffer":0,"byteOffset":4736,"byteLength":864,"target":34963},{"buffer":0,"byteOffset":5600,"byteLength":1776,"target":34962},{"buffer":0,"byteOffset":7376,"byteLength":1776,"target":34962},{"buffer":0,"byteOffset":9152,"byteLength":1184,"target":34962},{"buffer":0,"byteOffset":10336,"byteLength":864,"target":34963},{"buffer":0,"byteOffset":11200,"byteLength":6468,"target":34962},{"buffer":0,"byteOffset":17668,"byteLength":6468,"target":34962},{"buffer":0,"byteOffset":24136,"byteLength":4312,"target":34962},{"buffer":0,"byteOffset":28448,"byteLength":5760,"target":34963},{"buffer":0,"byteOffset":34208,"byteLength":2592,"target":34962},{"buffer":0,"byteOffset":36800,"byteLength":2592,"target":34962},{"buffer":0,"byteOffset":39392,"byteLength":1728,"target":34962},{"buffer":0,"byteOffset":41120,"byteLength":1800,"target":34963}],"buffers":[{"byteLength":42920,"uri":"amp-knob.bin"}],"materials":[{"name":"KnobBody","pbrMetallicRoughness":{"baseColorFactor":[0.86,0.86,0.87,1],"metallicFactor":0.55,"roughnessFactor":0.34}},{"name":"KnobPointer","pbrMetallicRoughness":{"baseColorFactor":[0.04,0.04,0.05,1],"metallicFactor":0,"roughnessFactor":0.5}}]}
