{"asset":{"version":"2.0","generator":"soundshed-guitar generate-amp-models.js (led)"},"scene":0,"scenes":[{"nodes":[0,1]}],"nodes":[{"name":"LedBezel","mesh":0,"extras":{"uvMode":"meters","materialSlot":"ChromeTrim"}},{"name":"LedLens","mesh":1,"extras":{"uvMode":"meters","materialSlot":"LedLens"}}],"meshes":[{"name":"LedBezelMesh","primitives":[{"attributes":{"POSITION":0,"NORMAL":1,"TEXCOORD_0":2},"indices":3,"material":0}]},{"name":"LedLensMesh","primitives":[{"attributes":{"POSITION":4,"NORMAL":5,"TEXCOORD_0":6},"indices":7,"material":1}]}],"accessors":[{"bufferView":0,"componentType":5126,"count":118,"type":"VEC3","min":[-0.008200000040233135,-0.008200000040233135,0],"max":[0.008200000040233135,0.008200000040233135,0.004999999888241291]},{"bufferView":1,"componentType":5126,"count":118,"type":"VEC3"},{"bufferView":2,"componentType":5126,"count":118,"type":"VEC2"},{"bufferView":3,"componentType":5123,"count":336,"type":"SCALAR"},{"bufferView":4,"componentType":5126,"count":401,"type":"VEC3","min":[-0.005499999970197678,-0.005499999970197678,0.0010000000474974513],"max":[0.005499999970197678,0.005499999970197678,0.009499999694526196]},{"bufferView":5,"componentType":5126,"count":401,"type":"VEC3"},{"bufferView":6,"componentType":5126,"count":401,"type":"VEC2"},{"bufferView":7,"componentType":5123,"count":1944,"type":"SCALAR"}],"bufferViews":[{"buffer":0,"byteOffset":0,"byteLength":1416,"target":34962},{"buffer":0,"byteOffset":1416,"byteLength":1416,"target":34962},{"buffer":0,"byteOffset":2832,"byteLength":944,"target":34962},{"buffer":0,"byteOffset":3776,"byteLength":672,"target":34963},{"buffer":0,"byteOffset":4448,"byteLength":4812,"target":34962},{"buffer":0,"byteOffset":9260,"byteLength":4812,"target":34962},{"buffer":0,"byteOffset":14072,"byteLength":3208,"target":34962},{"buffer":0,"byteOffset":17280,"byteLength":3888,"target":34963}],"buffers":[{"byteLength":21168,"uri":"amp-led.bin"}],"materials":[{"name":"ChromeTrim","pbrMetallicRoughness":{"baseColorFactor":[0.78,0.79,0.82,1],"metallicFactor":1,"roughnessFactor":0.16}},{"name":"LedLens","pbrMetallicRoughness":{"baseColorFactor":[0.12,0.35,0.9,1],"metallicFactor":0,"roughnessFactor":0.08}}]}
