{"asset":{"version":"2.0","generator":"soundshed-guitar generate-amp-models.js (amp head)"},"scene":0,"scenes":[{"nodes":[0,1,2,3,4,5,6,7,8,9,10,11,12,13,14,15,16,17,18,19,20,21,22,23,24,25,26]}],"nodes":[{"name":"HeadShell","mesh":0,"extras":{"uvMode":"meters","materialSlot":"Tolex"}},{"name":"FrameTop","mesh":1,"extras":{"uvMode":"meters","materialSlot":"Tolex"}},{"name":"FrameBottom","mesh":2,"extras":{"uvMode":"meters","materialSlot":"Tolex"}},{"name":"FrameLeft","mesh":3,"extras":{"uvMode":"meters","materialSlot":"Tolex"}},{"name":"FrameRight","mesh":4,"extras":{"uvMode":"meters","materialSlot":"Tolex"}},{"name":"GrilleCavity","mesh":5,"extras":{"uvMode":"meters","materialSlot":"GrilleBacking"}},{"name":"GrilleGlow","mesh":6,"extras":{"uvMode":"normalized","materialSlot":"GrilleGlow"}},{"name":"GrilleFace","mesh":7,"extras":{"uvMode":"normalized","materialSlot":"GrilleMetal"}},{"name":"PanelBody","mesh":8,"extras":{"uvMode":"meters","materialSlot":"PanelBody"}},{"name":"PanelFace","mesh":9,"extras":{"uvMode":"normalized","materialSlot":"PanelFace"}},{"name":"DisplayBezel","mesh":10,"extras":{"uvMode":"meters","materialSlot":"ChromeTrim"}},{"name":"DisplayGlass","mesh":11,"extras":{"uvMode":"normalized","materialSlot":"DisplayGlass"}},{"name":"Corner_LBR","mesh":12,"extras":{"uvMode":"meters","materialSlot":"CornerMetal"}},{"name":"Corner_LBF","mesh":13,"extras":{"uvMode":"meters","materialSlot":"CornerMetal"}},{"name":"Corner_LTR","mesh":14,"extras":{"uvMode":"meters","materialSlot":"CornerMetal"}},{"name":"Corner_LTF","mesh":15,"extras":{"uvMode":"meters","materialSlot":"CornerMetal"}},{"name":"Corner_RBR","mesh":16,"extras":{"uvMode":"meters","materialSlot":"CornerMetal"}},{"name":"Corner_RBF","mesh":17,"extras":{"uvMode":"meters","materialSlot":"CornerMetal"}},{"name":"Corner_RTR","mesh":18,"extras":{"uvMode":"meters","materialSlot":"CornerMetal"}},{"name":"Corner_RTF","mesh":19,"extras":{"uvMode":"meters","materialSlot":"CornerMetal"}},{"name":"HandleStrap","mesh":20,"extras":{"uvMode":"meters","materialSlot":"Leather"}},{"name":"HandleMountL","mesh":21,"extras":{"uvMode":"meters","materialSlot":"ChromeTrim"}},{"name":"HandleMountR","mesh":22,"extras":{"uvMode":"meters","materialSlot":"ChromeTrim"}},{"name":"Foot_LR","mesh":23,"extras":{"uvMode":"meters","materialSlot":"Rubber"}},{"name":"Foot_LF","mesh":24,"extras":{"uvMode":"meters","materialSlot":"Rubber"}},{"name":"Foot_RR","mesh":25,"extras":{"uvMode":"meters","materialSlot":"Rubber"}},{"name":"Foot_RF","mesh":26,"extras":{"uvMode":"meters","materialSlot":"Rubber"}}],"meshes":[{"name":"HeadShellMesh","primitives":[{"attributes":{"POSITION":0,"NORMAL":1,"TEXCOORD_0":2},"indices":3,"material":0}]},{"name":"FrameTopMesh","primitives":[{"attributes":{"POSITION":4,"NORMAL":5,"TEXCOORD_0":6},"indices":7,"material":0}]},{"name":"FrameBottomMesh","primitives":[{"attributes":{"POSITION":8,"NORMAL":9,"TEXCOORD_0":10},"indices":11,"material":0}]},{"name":"FrameLeftMesh","primitives":[{"attributes":{"POSITION":12,"NORMAL":13,"TEXCOORD_0":14},"indices":15,"material":0}]},{"name":"FrameRightMesh","primitives":[{"attributes":{"POSITION":16,"NORMAL":17,"TEXCOORD_0":18},"indices":19,"material":0}]},{"name":"GrilleCavityMesh","primitives":[{"attributes":{"POSITION":20,"NORMAL":21,"TEXCOORD_0":22},"indices":23,"material":1}]},{"name":"GrilleGlowMesh","primitives":[{"attributes":{"POSITION":24,"NORMAL":25,"TEXCOORD_0":26},"indices":27,"material":2}]},{"name":"GrilleFaceMesh","primitives":[{"attributes":{"POSITION":28,"NORMAL":29,"TEXCOORD_0":30},"indices":31,"material":3}]},{"name":"PanelBodyMesh","primitives":[{"attributes":{"POSITION":32,"NORMAL":33,"TEXCOORD_0":34},"indices":35,"material":4}]},{"name":"PanelFaceMesh","primitives":[{"attributes":{"POSITION":36,"NORMAL":37,"TEXCOORD_0":38},"indices":39,"material":5}]},{"name":"DisplayBezelMesh","primitives":[{"attributes":{"POSITION":40,"NORMAL":41,"TEXCOORD_0":42},"indices":43,"material":6}]},{"name":"DisplayGlassMesh","primitives":[{"attributes":{"POSITION":44,"NORMAL":45,"TEXCOORD_0":46},"indices":47,"material":7}]},{"name":"Corner_LBRMesh","primitives":[{"attributes":{"POSITION":48,"NORMAL":49,"TEXCOORD_0":50},"indices":51,"material":8}]},{"name":"Corner_LBFMesh","primitives":[{"attributes":{"POSITION":52,"NORMAL":53,"TEXCOORD_0":54},"indices":55,"material":8}]},{"name":"Corner_LTRMesh","primitives":[{"attributes":{"POSITION":56,"NORMAL":57,"TEXCOORD_0":58},"indices":59,"material":8}]},{"name":"Corner_LTFMesh","primitives":[{"attributes":{"POSITION":60,"NORMAL":61,"TEXCOORD_0":62},"indices":63,"material":8}]},{"name":"Corner_RBRMesh","primitives":[{"attributes":{"POSITION":64,"NORMAL":65,"TEXCOORD_0":66},"indices":67,"material":8}]},{"name":"Corner_RBFMesh","primitives":[{"attributes":{"POSITION":68,"NORMAL":69,"TEXCOORD_0":70},"indices":71,"material":8}]},{"name":"Corner_RTRMesh","primitives":[{"attributes":{"POSITION":72,"NORMAL":73,"TEXCOORD_0":74},"indices":75,"material":8}]},{"name":"Corner_RTFMesh","primitives":[{"attributes":{"POSITION":76,"NORMAL":77,"TEXCOORD_0":78},"indices":79,"material":8}]},{"name":"HandleStrapMesh","primitives":[{"attributes":{"POSITION":80,"NORMAL":81,"TEXCOORD_0":82},"indices":83,"material":9}]},{"name":"HandleMountLMesh","primitives":[{"attributes":{"POSITION":84,"NORMAL":85,"TEXCOORD_0":86},"indices":87,"material":6}]},{"name":"HandleMountRMesh","primitives":[{"attributes":{"POSITION":88,"NORMAL":89,"TEXCOORD_0":90},"indices":91,"material":6}]},{"name":"Foot_LRMesh","primitives":[{"attributes":{"POSITION":92,"NORMAL":93,"TEXCOORD_0":94},"indices":95,"material":10}]},{"name":"Foot_LFMesh","primitives":[{"attributes":{"POSITION":96,"NORMAL":97,"TEXCOORD_0":98},"indices":99,"material":10}]},{"name":"Foot_RRMesh","primitives":[{"attributes":{"POSITION":100,"NORMAL":101,"TEXCOORD_0":102},"indices":103,"material":10}]},{"name":"Foot_RFMesh","primitives":[{"attributes":{"POSITION":104,"NORMAL":105,"TEXCOORD_0":106},"indices":107,"material":10}]}],"accessors":[{"bufferView":0,"componentType":5126,"count":600,"type":"VEC3","min":[-0.3700000047683716,-0.15000000596046448,-0.12999999523162842],"max":[0.3700000047683716,0.15000000596046448,0.10599999874830246]},{"bufferView":1,"componentType":5126,"count":600,"type":"VEC3"},{"bufferView":2,"componentType":5126,"count":600,"type":"VEC2"},{"bufferView":3,"componentType":5123,"count":2916,"type":"SCALAR"},{"bufferView":4,"componentType":5126,"count":384,"type":"VEC3","min":[-0.3700000047683716,0.12800000607967377,0.10499999672174454],"max":[0.3700000047683716,0.15000000596046448,0.13099999725818634]},{"bufferView":5,"componentType":5126,"count":384,"type":"VEC3"},{"bufferView":6,"componentType":5126,"count":384,"type":"VEC2"},{"bufferView":7,"componentType":5123,"count":1764,"type":"SCALAR"},{"bufferView":8,"componentType":5126,"count":384,"type":"VEC3","min":[-0.3699598014354706,-0.04800000041723251,0.10504020005464554],"max":[0.3699598014354706,-0.03999999910593033,0.13095979392528534]},{"bufferView":9,"componentType":5126,"count":384,"type":"VEC3"},{"bufferView":10,"componentType":5126,"count":384,"type":"VEC2"},{"bufferView":11,"componentType":5123,"count":1764,"type":"SCALAR"},{"bufferView":12,"componentType":5126,"count":384,"type":"VEC3","min":[-0.3700000047683716,-0.03999999910593033,0.10499999672174454],"max":[-0.32499998807907104,0.12800000607967377,0.13099999725818634]},{"bufferView":13,"componentType":5126,"count":384,"type":"VEC3"},{"bufferView":14,"componentType":5126,"count":384,"type":"VEC2"},{"bufferView":15,"componentType":5123,"count":1764,"type":"SCALAR"},{"bufferView":16,"componentType":5126,"count":384,"type":"VEC3","min":[0.32499998807907104,-0.03999999910593033,0.10499999672174454],"max":[0.3700000047683716,0.12800000607967377,0.13099999725818634]},{"bufferView":17,"componentType":5126,"count":384,"type":"VEC3"},{"bufferView":18,"componentType":5126,"count":384,"type":"VEC2"},{"bufferView":19,"componentType":5123,"count":1764,"type":"SCALAR"},{"bufferView":20,"componentType":5126,"count":216,"type":"VEC3","min":[-0.33000001311302185,-0.04500000178813934,0.10199999809265137],"max":[0.33000001311302185,0.13300000131130219,0.11400000005960464]},{"bufferView":21,"componentType":5126,"count":216,"type":"VEC3"},{"bufferView":22,"componentType":5126,"count":216,"type":"VEC2"},{"bufferView":23,"componentType":5123,"count":900,"type":"SCALAR"},{"bufferView":24,"componentType":5126,"count":4,"type":"VEC3","min":[-0.32499998807907104,-0.03999999910593033,0.11500000208616257],"max":[0.32499998807907104,0.12800000607967377,0.11500000208616257]},{"bufferView":25,"componentType":5126,"count":4,"type":"VEC3"},{"bufferView":26,"componentType":5126,"count":4,"type":"VEC2"},{"bufferView":27,"componentType":5123,"count":6,"type":"SCALAR"},{"bufferView":28,"componentType":5126,"count":4,"type":"VEC3","min":[-0.32499998807907104,-0.03999999910593033,0.12150000035762787],"max":[0.32499998807907104,0.12800000607967377,0.12150000035762787]},{"bufferView":29,"componentType":5126,"count":4,"type":"VEC3"},{"bufferView":30,"componentType":5126,"count":4,"type":"VEC2"},{"bufferView":31,"componentType":5123,"count":6,"type":"SCALAR"},{"bufferView":32,"componentType":5126,"count":384,"type":"VEC3","min":[-0.35199999809265137,-0.13600000739097595,0.10450000315904617],"max":[0.35199999809265137,-0.04800000041723251,0.13449999690055847]},{"bufferView":33,"componentType":5126,"count":384,"type":"VEC3"},{"bufferView":34,"componentType":5126,"count":384,"type":"VEC2"},{"bufferView":35,"componentType":5123,"count":1764,"type":"SCALAR"},{"bufferView":36,"componentType":5126,"count":4,"type":"VEC3","min":[-0.35199999809265137,-0.13600000739097595,0.13510000705718994],"max":[0.35199999809265137,-0.04800000041723251,0.13510000705718994]},{"bufferView":37,"componentType":5126,"count":4,"type":"VEC3"},{"bufferView":38,"componentType":5126,"count":4,"type":"VEC2"},{"bufferView":39,"componentType":5123,"count":6,"type":"SCALAR"},{"bufferView":40,"componentType":5126,"count":216,"type":"VEC3","min":[-0.27799999713897705,-0.10300000011920929,0.13349999487400055],"max":[-0.1459999978542328,-0.0729999989271164,0.13950000703334808]},{"bufferView":41,"componentType":5126,"count":216,"type":"VEC3"},{"bufferView":42,"componentType":5126,"count":216,"type":"VEC2"},{"bufferView":43,"componentType":5123,"count":900,"type":"SCALAR"},{"bufferView":44,"componentType":5126,"count":4,"type":"VEC3","min":[-0.27399998903274536,-0.09950000047683716,0.14000000059604645],"max":[-0.15000000596046448,-0.07649999856948853,0.14000000059604645]},{"bufferView":45,"componentType":5126,"count":4,"type":"VEC3"},{"bufferView":46,"componentType":5126,"count":4,"type":"VEC2"},{"bufferView":47,"componentType":5123,"count":6,"type":"SCALAR"},{"bufferView":48,"componentType":5126,"count":216,"type":"VEC3","min":[-0.37400001287460327,-0.15399999916553497,-0.14399999380111694],"max":[-0.3190000057220459,-0.0989999994635582,-0.08900000154972076]},{"bufferView":49,"componentType":5126,"count":216,"type":"VEC3"},{"bufferView":50,"componentType":5126,"count":216,"type":"VEC2"},{"bufferView":51,"componentType":5123,"count":900,"type":"SCALAR"},{"bufferView":52,"componentType":5126,"count":216,"type":"VEC3","min":[-0.37400001287460327,-0.15399999916553497,0.06499999761581421],"max":[-0.3190000057220459,-0.0989999994635582,0.11999999731779099]},{"bufferView":53,"componentType":5126,"count":216,"type":"VEC3"},{"bufferView":54,"componentType":5126,"count":216,"type":"VEC2"},{"bufferView":55,"componentType":5123,"count":900,"type":"SCALAR"},{"bufferView":56,"componentType":5126,"count":216,"type":"VEC3","min":[-0.37400001287460327,0.0989999994635582,-0.14399999380111694],"max":[-0.3190000057220459,0.15399999916553497,-0.08900000154972076]},{"bufferView":57,"componentType":5126,"count":216,"type":"VEC3"},{"bufferView":58,"componentType":5126,"count":216,"type":"VEC2"},{"bufferView":59,"componentType":5123,"count":900,"type":"SCALAR"},{"bufferView":60,"componentType":5126,"count":216,"type":"VEC3","min":[-0.37400001287460327,0.0989999994635582,0.06499999761581421],"max":[-0.3190000057220459,0.15399999916553497,0.11999999731779099]},{"bufferView":61,"componentType":5126,"count":216,"type":"VEC3"},{"bufferView":62,"componentType":5126,"count":216,"type":"VEC2"},{"bufferView":63,"componentType":5123,"count":900,"type":"SCALAR"},{"bufferView":64,"componentType":5126,"count":216,"type":"VEC3","min":[0.3190000057220459,-0.15399999916553497,-0.14399999380111694],"max":[0.37400001287460327,-0.0989999994635582,-0.08900000154972076]},{"bufferView":65,"componentType":5126,"count":216,"type":"VEC3"},{"bufferView":66,"componentType":5126,"count":216,"type":"VEC2"},{"bufferView":67,"componentType":5123,"count":900,"type":"SCALAR"},{"bufferView":68,"componentType":5126,"count":216,"type":"VEC3","min":[0.3190000057220459,-0.15399999916553497,0.06499999761581421],"max":[0.37400001287460327,-0.0989999994635582,0.11999999731779099]},{"bufferView":69,"componentType":5126,"count":216,"type":"VEC3"},{"bufferView":70,"componentType":5126,"count":216,"type":"VEC2"},{"bufferView":71,"componentType":5123,"count":900,"type":"SCALAR"},{"bufferView":72,"componentType":5126,"count":216,"type":"VEC3","min":[0.3190000057220459,0.0989999994635582,-0.14399999380111694],"max":[0.37400001287460327,0.15399999916553497,-0.08900000154972076]},{"bufferView":73,"componentType":5126,"count":216,"type":"VEC3"},{"bufferView":74,"componentType":5126,"count":216,"type":"VEC2"},{"bufferView":75,"componentType":5123,"count":900,"type":"SCALAR"},{"bufferView":76,"componentType":5126,"count":216,"type":"VEC3","min":[0.3190000057220459,0.0989999994635582,0.06499999761581421],"max":[0.37400001287460327,0.15399999916553497,0.11999999731779099]},{"bufferView":77,"componentType":5126,"count":216,"type":"VEC3"},{"bufferView":78,"componentType":5126,"count":216,"type":"VEC2"},{"bufferView":79,"componentType":5123,"count":900,"type":"SCALAR"},{"bufferView":80,"componentType":5126,"count":384,"type":"VEC3","min":[-0.10000000149011612,0.15700000524520874,-0.028999999165534973],"max":[0.10000000149011612,0.17100000381469727,0.004999999888241291]},{"bufferView":81,"componentType":5126,"count":384,"type":"VEC3"},{"bufferView":82,"componentType":5126,"count":384,"type":"VEC2"},{"bufferView":83,"componentType":5123,"count":1764,"type":"SCALAR"},{"bufferView":84,"componentType":5126,"count":216,"type":"VEC3","min":[-0.12300000339746475,0.14100000262260437,-0.03400000184774399],"max":[-0.09300000220537186,0.16699999570846558,0.009999999776482582]},{"bufferView":85,"componentType":5126,"count":216,"type":"VEC3"},{"bufferView":86,"componentType":5126,"count":216,"type":"VEC2"},{"bufferView":87,"componentType":5123,"count":900,"type":"SCALAR"},{"bufferView":88,"componentType":5126,"count":216,"type":"VEC3","min":[0.09300000220537186,0.14100000262260437,-0.03400000184774399],"max":[0.12300000339746475,0.16699999570846558,0.009999999776482582]},{"bufferView":89,"componentType":5126,"count":216,"type":"VEC3"},{"bufferView":90,"componentType":5126,"count":216,"type":"VEC2"},{"bufferView":91,"componentType":5123,"count":900,"type":"SCALAR"},{"bufferView":92,"componentType":5126,"count":86,"type":"VEC3","min":[-0.2879999876022339,-0.16099999845027924,-0.10499999672174454],"max":[-0.25200000405311584,-0.14900000393390656,-0.0689999982714653]},{"bufferView":93,"componentType":5126,"count":86,"type":"VEC3"},{"bufferView":94,"componentType":5126,"count":86,"type":"VEC2"},{"bufferView":95,"componentType":5123,"count":240,"type":"SCALAR"},{"bufferView":96,"componentType":5126,"count":86,"type":"VEC3","min":[-0.2879999876022339,-0.16099999845027924,0.04500000178813934],"max":[-0.25200000405311584,-0.14900000393390656,0.08100000023841858]},{"bufferView":97,"componentType":5126,"count":86,"type":"VEC3"},{"bufferView":98,"componentType":5126,"count":86,"type":"VEC2"},{"bufferView":99,"componentType":5123,"count":240,"type":"SCALAR"},{"bufferView":100,"componentType":5126,"count":86,"type":"VEC3","min":[0.25200000405311584,-0.16099999845027924,-0.10499999672174454],"max":[0.2879999876022339,-0.14900000393390656,-0.0689999982714653]},{"bufferView":101,"componentType":5126,"count":86,"type":"VEC3"},{"bufferView":102,"componentType":5126,"count":86,"type":"VEC2"},{"bufferView":103,"componentType":5123,"count":240,"type":"SCALAR"},{"bufferView":104,"componentType":5126,"count":86,"type":"VEC3","min":[0.25200000405311584,-0.16099999845027924,0.04500000178813934],"max":[0.2879999876022339,-0.14900000393390656,0.08100000023841858]},{"bufferView":105,"componentType":5126,"count":86,"type":"VEC3"},{"bufferView":106,"componentType":5126,"count":86,"type":"VEC2"},{"bufferView":107,"componentType":5123,"count":240,"type":"SCALAR"}],"bufferViews":[{"buffer":0,"byteOffset":0,"byteLength":7200,"target":34962},{"buffer":0,"byteOffset":7200,"byteLength":7200,"target":34962},{"buffer":0,"byteOffset":14400,"byteLength":4800,"target":34962},{"buffer":0,"byteOffset":19200,"byteLength":5832,"target":34963},{"buffer":0,"byteOffset":25032,"byteLength":4608,"target":34962},{"buffer":0,"byteOffset":29640,"byteLength":4608,"target":34962},{"buffer":0,"byteOffset":34248,"byteLength":3072,"target":34962},{"buffer":0,"byteOffset":37320,"byteLength":3528,"target":34963},{"buffer":0,"byteOffset":40848,"byteLength":4608,"target":34962},{"buffer":0,"byteOffset":45456,"byteLength":4608,"target":34962},{"buffer":0,"byteOffset":50064,"byteLength":3072,"target":34962},{"buffer":0,"byteOffset":53136,"byteLength":3528,"target":34963},{"buffer":0,"byteOffset":56664,"byteLength":4608,"target":34962},{"buffer":0,"byteOffset":61272,"byteLength":4608,"target":34962},{"buffer":0,"byteOffset":65880,"byteLength":3072,"target":34962},{"buffer":0,"byteOffset":68952,"byteLength":3528,"target":34963},{"buffer":0,"byteOffset":72480,"byteLength":4608,"target":34962},{"buffer":0,"byteOffset":77088,"byteLength":4608,"target":34962},{"buffer":0,"byteOffset":81696,"byteLength":3072,"target":34962},{"buffer":0,"byteOffset":84768,"byteLength":3528,"target":34963},{"buffer":0,"byteOffset":88296,"byteLength":2592,"target":34962},{"buffer":0,"byteOffset":90888,"byteLength":2592,"target":34962},{"buffer":0,"byteOffset":93480,"byteLength":1728,"target":34962},{"buffer":0,"byteOffset":95208,"byteLength":1800,"target":34963},{"buffer":0,"byteOffset":97008,"byteLength":48,"target":34962},{"buffer":0,"byteOffset":97056,"byteLength":48,"target":34962},{"buffer":0,"byteOffset":97104,"byteLength":32,"target":34962},{"buffer":0,"byteOffset":97136,"byteLength":12,"target":34963},{"buffer":0,"byteOffset":97148,"byteLength":48,"target":34962},{"buffer":0,"byteOffset":97196,"byteLength":48,"target":34962},{"buffer":0,"byteOffset":97244,"byteLength":32,"target":34962},{"buffer":0,"byteOffset":97276,"byteLength":12,"target":34963},{"buffer":0,"byteOffset":97288,"byteLength":4608,"target":34962},{"buffer":0,"byteOffset":101896,"byteLength":4608,"target":34962},{"buffer":0,"byteOffset":106504,"byteLength":3072,"target":34962},{"buffer":0,"byteOffset":109576,"byteLength":3528,"target":34963},{"buffer":0,"byteOffset":113104,"byteLength":48,"target":34962},{"buffer":0,"byteOffset":113152,"byteLength":48,"target":34962},{"buffer":0,"byteOffset":113200,"byteLength":32,"target":34962},{"buffer":0,"byteOffset":113232,"byteLength":12,"target":34963},{"buffer":0,"byteOffset":113244,"byteLength":2592,"target":34962},{"buffer":0,"byteOffset":115836,"byteLength":2592,"target":34962},{"buffer":0,"byteOffset":118428,"byteLength":1728,"target":34962},{"buffer":0,"byteOffset":120156,"byteLength":1800,"target":34963},{"buffer":0,"byteOffset":121956,"byteLength":48,"target":34962},{"buffer":0,"byteOffset":122004,"byteLength":48,"target":34962},{"buffer":0,"byteOffset":122052,"byteLength":32,"target":34962},{"buffer":0,"byteOffset":122084,"byteLength":12,"target":34963},{"buffer":0,"byteOffset":122096,"byteLength":2592,"target":34962},{"buffer":0,"byteOffset":124688,"byteLength":2592,"target":34962},{"buffer":0,"byteOffset":127280,"byteLength":1728,"target":34962},{"buffer":0,"byteOffset":129008,"byteLength":1800,"target":34963},{"buffer":0,"byteOffset":130808,"byteLength":2592,"target":34962},{"buffer":0,"byteOffset":133400,"byteLength":2592,"target":34962},{"buffer":0,"byteOffset":135992,"byteLength":1728,"target":34962},{"buffer":0,"byteOffset":137720,"byteLength":1800,"target":34963},{"buffer":0,"byteOffset":139520,"byteLength":2592,"target":34962},{"buffer":0,"byteOffset":142112,"byteLength":2592,"target":34962},{"buffer":0,"byteOffset":144704,"byteLength":1728,"target":34962},{"buffer":0,"byteOffset":146432,"byteLength":1800,"target":34963},{"buffer":0,"byteOffset":148232,"byteLength":2592,"target":34962},{"buffer":0,"byteOffset":150824,"byteLength":2592,"target":34962},{"buffer":0,"byteOffset":153416,"byteLength":1728,"target":34962},{"buffer":0,"byteOffset":155144,"byteLength":1800,"target":34963},{"buffer":0,"byteOffset":156944,"byteLength":2592,"target":34962},{"buffer":0,"byteOffset":159536,"byteLength":2592,"target":34962},{"buffer":0,"byteOffset":162128,"byteLength":1728,"target":34962},{"buffer":0,"byteOffset":163856,"byteLength":1800,"target":34963},{"buffer":0,"byteOffset":165656,"byteLength":2592,"target":34962},{"buffer":0,"byteOffset":168248,"byteLength":2592,"target":34962},{"buffer":0,"byteOffset":170840,"byteLength":1728,"target":34962},{"buffer":0,"byteOffset":172568,"byteLength":1800,"target":34963},{"buffer":0,"byteOffset":174368,"byteLength":2592,"target":34962},{"buffer":0,"byteOffset":176960,"byteLength":2592,"target":34962},{"buffer":0,"byteOffset":179552,"byteLength":1728,"target":34962},{"buffer":0,"byteOffset":181280,"byteLength":1800,"target":34963},{"buffer":0,"byteOffset":183080,"byteLength":2592,"target":34962},{"buffer":0,"byteOffset":185672,"byteLength":2592,"target":34962},{"buffer":0,"byteOffset":188264,"byteLength":1728,"target":34962},{"buffer":0,"byteOffset":189992,"byteLength":1800,"target":34963},{"buffer":0,"byteOffset":191792,"byteLength":4608,"target":34962},{"buffer":0,"byteOffset":196400,"byteLength":4608,"target":34962},{"buffer":0,"byteOffset":201008,"byteLength":3072,"target":34962},{"buffer":0,"byteOffset":204080,"byteLength":3528,"target":34963},{"buffer":0,"byteOffset":207608,"byteLength":2592,"target":34962},{"buffer":0,"byteOffset":210200,"byteLength":2592,"target":34962},{"buffer":0,"byteOffset":212792,"byteLength":1728,"target":34962},{"buffer":0,"byteOffset":214520,"byteLength":1800,"target":34963},{"buffer":0,"byteOffset":216320,"byteLength":2592,"target":34962},{"buffer":0,"byteOffset":218912,"byteLength":2592,"target":34962},{"buffer":0,"byteOffset":221504,"byteLength":1728,"target":34962},{"buffer":0,"byteOffset":223232,"byteLength":1800,"target":34963},{"buffer":0,"byteOffset":225032,"byteLength":1032,"target":34962},{"buffer":0,"byteOffset":226064,"byteLength":1032,"target":34962},{"buffer":0,"byteOffset":227096,"byteLength":688,"target":34962},{"buffer":0,"byteOffset":227784,"byteLength":480,"target":34963},{"buffer":0,"byteOffset":228264,"byteLength":1032,"target":34962},{"buffer":0,"byteOffset":229296,"byteLength":1032,"target":34962},{"buffer":0,"byteOffset":230328,"byteLength":688,"target":34962},{"buffer":0,"byteOffset":231016,"byteLength":480,"target":34963},{"buffer":0,"byteOffset":231496,"byteLength":1032,"target":34962},{"buffer":0,"byteOffset":232528,"byteLength":1032,"target":34962},{"buffer":0,"byteOffset":233560,"byteLength":688,"target":34962},{"buffer":0,"byteOffset":234248,"byteLength":480,"target":34963},{"buffer":0,"byteOffset":234728,"byteLength":1032,"target":34962},{"buffer":0,"byteOffset":235760,"byteLength":1032,"target":34962},{"buffer":0,"byteOffset":236792,"byteLength":688,"target":34962},{"buffer":0,"byteOffset":237480,"byteLength":480,"target":34963}],"buffers":[{"byteLength":237960,"uri":"amp-head.bin"}],"materials":[{"name":"Tolex","pbrMetallicRoughness":{"baseColorFactor":[0.11,0.09,0.08,1],"metallicFactor":0,"roughnessFactor":0.85}},{"name":"GrilleBacking","pbrMetallicRoughness":{"baseColorFactor":[0.02,0.02,0.03,1],"metallicFactor":0,"roughnessFactor":0.95}},{"name":"GrilleGlow","pbrMetallicRoughness":{"baseColorFactor":[0.05,0.12,0.4,1],"metallicFactor":0,"roughnessFactor":1}},{"name":"GrilleMetal","pbrMetallicRoughness":{"baseColorFactor":[0.05,0.05,0.06,1],"metallicFactor":0.9,"roughnessFactor":0.42},"doubleSided":true},{"name":"PanelBody","pbrMetallicRoughness":{"baseColorFactor":[0.7,0.7,0.72,1],"metallicFactor":0.85,"roughnessFactor":0.36}},{"name":"PanelFace","pbrMetallicRoughness":{"baseColorFactor":[0.82,0.82,0.83,1],"metallicFactor":0.85,"roughnessFactor":0.32}},{"name":"ChromeTrim","pbrMetallicRoughness":{"baseColorFactor":[0.78,0.79,0.82,1],"metallicFactor":1,"roughnessFactor":0.16}},{"name":"DisplayGlass","pbrMetallicRoughness":{"baseColorFactor":[0.02,0.02,0.02,1],"metallicFactor":0,"roughnessFactor":0.18}},{"name":"CornerMetal","pbrMetallicRoughness":{"baseColorFactor":[0.16,0.16,0.17,1],"metallicFactor":1,"roughnessFactor":0.38}},{"name":"Leather","pbrMetallicRoughness":{"baseColorFactor":[0.09,0.08,0.07,1],"metallicFactor":0,"roughnessFactor":0.7}},{"name":"Rubber","pbrMetallicRoughness":{"baseColorFactor":[0.04,0.04,0.045,1],"metallicFactor":0,"roughnessFactor":0.95}}]}
