{"asset":{"version":"2.0","generator":"soundshed-guitar generate-amp-models.js (4x12 cabinet)"},"scene":0,"scenes":[{"nodes":[0,1,2,3,4,5,6,7,8,9,10,11,12,13,14,15,16,17,18,19,20,21,22,23,24,25,26]}],"nodes":[{"name":"CabBack","mesh":0,"extras":{"uvMode":"meters","materialSlot":"Tolex"}},{"name":"CabWallLeft","mesh":1,"extras":{"uvMode":"meters","materialSlot":"Tolex"}},{"name":"CabWallBottom","mesh":2,"extras":{"uvMode":"meters","materialSlot":"Tolex"}},{"name":"CabWallRight","mesh":3,"extras":{"uvMode":"meters","materialSlot":"Tolex"}},{"name":"CabWallTop","mesh":4,"extras":{"uvMode":"meters","materialSlot":"Tolex"}},{"name":"CabFrameTop","mesh":5,"extras":{"uvMode":"meters","materialSlot":"Tolex"}},{"name":"CabFrameBottom","mesh":6,"extras":{"uvMode":"meters","materialSlot":"Tolex"}},{"name":"CabFrameLeft","mesh":7,"extras":{"uvMode":"meters","materialSlot":"Tolex"}},{"name":"CabFrameRight","mesh":8,"extras":{"uvMode":"meters","materialSlot":"Tolex"}},{"name":"CabBaffle","mesh":9,"extras":{"uvMode":"meters","materialSlot":"GrilleBacking"}},{"name":"SpeakerCone_1","mesh":10,"extras":{"uvMode":"meters","materialSlot":"SpeakerCone"}},{"name":"SpeakerDust_1","mesh":11,"extras":{"uvMode":"meters","materialSlot":"SpeakerDust"}},{"name":"SpeakerSurround_1","mesh":12,"extras":{"uvMode":"meters","materialSlot":"Rubber"}},{"name":"SpeakerCone_2","mesh":13,"extras":{"uvMode":"meters","materialSlot":"SpeakerCone"}},{"name":"SpeakerDust_2","mesh":14,"extras":{"uvMode":"meters","materialSlot":"SpeakerDust"}},{"name":"SpeakerSurround_2","mesh":15,"extras":{"uvMode":"meters","materialSlot":"Rubber"}},{"name":"SpeakerCone_3","mesh":16,"extras":{"uvMode":"meters","materialSlot":"SpeakerCone"}},{"name":"SpeakerDust_3","mesh":17,"extras":{"uvMode":"meters","materialSlot":"SpeakerDust"}},{"name":"SpeakerSurround_3","mesh":18,"extras":{"uvMode":"meters","materialSlot":"Rubber"}},{"name":"SpeakerCone_4","mesh":19,"extras":{"uvMode":"meters","materialSlot":"SpeakerCone"}},{"name":"SpeakerDust_4","mesh":20,"extras":{"uvMode":"meters","materialSlot":"SpeakerDust"}},{"name":"SpeakerSurround_4","mesh":21,"extras":{"uvMode":"meters","materialSlot":"Rubber"}},{"name":"CabCloth","mesh":22,"extras":{"uvMode":"normalized","materialSlot":"GrilleCloth"}},{"name":"CabCaster_LR","mesh":23,"extras":{"uvMode":"meters","materialSlot":"Rubber"}},{"name":"CabCaster_LF","mesh":24,"extras":{"uvMode":"meters","materialSlot":"Rubber"}},{"name":"CabCaster_RR","mesh":25,"extras":{"uvMode":"meters","materialSlot":"Rubber"}},{"name":"CabCaster_RF","mesh":26,"extras":{"uvMode":"meters","materialSlot":"Rubber"}}],"meshes":[{"name":"CabBackMesh","primitives":[{"attributes":{"POSITION":0,"NORMAL":1,"TEXCOORD_0":2},"indices":3,"material":0}]},{"name":"CabWallLeftMesh","primitives":[{"attributes":{"POSITION":4,"NORMAL":5,"TEXCOORD_0":6},"indices":7,"material":0}]},{"name":"CabWallBottomMesh","primitives":[{"attributes":{"POSITION":8,"NORMAL":9,"TEXCOORD_0":10},"indices":11,"material":0}]},{"name":"CabWallRightMesh","primitives":[{"attributes":{"POSITION":12,"NORMAL":13,"TEXCOORD_0":14},"indices":15,"material":0}]},{"name":"CabWallTopMesh","primitives":[{"attributes":{"POSITION":16,"NORMAL":17,"TEXCOORD_0":18},"indices":19,"material":0}]},{"name":"CabFrameTopMesh","primitives":[{"attributes":{"POSITION":20,"NORMAL":21,"TEXCOORD_0":22},"indices":23,"material":0}]},{"name":"CabFrameBottomMesh","primitives":[{"attributes":{"POSITION":24,"NORMAL":25,"TEXCOORD_0":26},"indices":27,"material":0}]},{"name":"CabFrameLeftMesh","primitives":[{"attributes":{"POSITION":28,"NORMAL":29,"TEXCOORD_0":30},"indices":31,"material":0}]},{"name":"CabFrameRightMesh","primitives":[{"attributes":{"POSITION":32,"NORMAL":33,"TEXCOORD_0":34},"indices":35,"material":0}]},{"name":"CabBaffleMesh","primitives":[{"attributes":{"POSITION":36,"NORMAL":37,"TEXCOORD_0":38},"indices":39,"material":1}]},{"name":"SpeakerCone_1Mesh","primitives":[{"attributes":{"POSITION":40,"NORMAL":41,"TEXCOORD_0":42},"indices":43,"material":2}]},{"name":"SpeakerDust_1Mesh","primitives":[{"attributes":{"POSITION":44,"NORMAL":45,"TEXCOORD_0":46},"indices":47,"material":3}]},{"name":"SpeakerSurround_1Mesh","primitives":[{"attributes":{"POSITION":48,"NORMAL":49,"TEXCOORD_0":50},"indices":51,"material":4}]},{"name":"SpeakerCone_2Mesh","primitives":[{"attributes":{"POSITION":52,"NORMAL":53,"TEXCOORD_0":54},"indices":55,"material":2}]},{"name":"SpeakerDust_2Mesh","primitives":[{"attributes":{"POSITION":56,"NORMAL":57,"TEXCOORD_0":58},"indices":59,"material":3}]},{"name":"SpeakerSurround_2Mesh","primitives":[{"attributes":{"POSITION":60,"NORMAL":61,"TEXCOORD_0":62},"indices":63,"material":4}]},{"name":"SpeakerCone_3Mesh","primitives":[{"attributes":{"POSITION":64,"NORMAL":65,"TEXCOORD_0":66},"indices":67,"material":2}]},{"name":"SpeakerDust_3Mesh","primitives":[{"attributes":{"POSITION":68,"NORMAL":69,"TEXCOORD_0":70},"indices":71,"material":3}]},{"name":"SpeakerSurround_3Mesh","primitives":[{"attributes":{"POSITION":72,"NORMAL":73,"TEXCOORD_0":74},"indices":75,"material":4}]},{"name":"SpeakerCone_4Mesh","primitives":[{"attributes":{"POSITION":76,"NORMAL":77,"TEXCOORD_0":78},"indices":79,"material":2}]},{"name":"SpeakerDust_4Mesh","primitives":[{"attributes":{"POSITION":80,"NORMAL":81,"TEXCOORD_0":82},"indices":83,"material":3}]},{"name":"SpeakerSurround_4Mesh","primitives":[{"attributes":{"POSITION":84,"NORMAL":85,"TEXCOORD_0":86},"indices":87,"material":4}]},{"name":"CabClothMesh","primitives":[{"attributes":{"POSITION":88,"NORMAL":89,"TEXCOORD_0":90},"indices":91,"material":5}]},{"name":"CabCaster_LRMesh","primitives":[{"attributes":{"POSITION":92,"NORMAL":93,"TEXCOORD_0":94},"indices":95,"material":4}]},{"name":"CabCaster_LFMesh","primitives":[{"attributes":{"POSITION":96,"NORMAL":97,"TEXCOORD_0":98},"indices":99,"material":4}]},{"name":"CabCaster_RRMesh","primitives":[{"attributes":{"POSITION":100,"NORMAL":101,"TEXCOORD_0":102},"indices":103,"material":4}]},{"name":"CabCaster_RFMesh","primitives":[{"attributes":{"POSITION":104,"NORMAL":105,"TEXCOORD_0":106},"indices":107,"material":4}]}],"accessors":[{"bufferView":0,"componentType":5126,"count":600,"type":"VEC3","min":[-0.4000000059604645,-0.38999998569488525,-0.18000000715255737],"max":[0.4000000059604645,0.38999998569488525,-0.1745000034570694]},{"bufferView":1,"componentType":5126,"count":600,"type":"VEC3"},{"bufferView":2,"componentType":5126,"count":600,"type":"VEC2"},{"bufferView":3,"componentType":5123,"count":2916,"type":"SCALAR"},{"bufferView":4,"componentType":5126,"count":600,"type":"VEC3","min":[-0.4000000059604645,-0.38999998569488525,-0.1745000034570694],"max":[-0.3944999873638153,0.38999998569488525,0.15800000727176666]},{"bufferView":5,"componentType":5126,"count":600,"type":"VEC3"},{"bufferView":6,"componentType":5126,"count":600,"type":"VEC2"},{"bufferView":7,"componentType":5123,"count":2916,"type":"SCALAR"},{"bufferView":8,"componentType":5126,"count":600,"type":"VEC3","min":[-0.3944999873638153,-0.38999998569488525,-0.1745000034570694],"max":[0.3944999873638153,-0.38449999690055847,0.15800000727176666]},{"bufferView":9,"componentType":5126,"count":600,"type":"VEC3"},{"bufferView":10,"componentType":5126,"count":600,"type":"VEC2"},{"bufferView":11,"componentType":5123,"count":2916,"type":"SCALAR"},{"bufferView":12,"componentType":5126,"count":600,"type":"VEC3","min":[0.3944999873638153,-0.38999998569488525,-0.1745000034570694],"max":[0.4000000059604645,0.38999998569488525,0.15800000727176666]},{"bufferView":13,"componentType":5126,"count":600,"type":"VEC3"},{"bufferView":14,"componentType":5126,"count":600,"type":"VEC2"},{"bufferView":15,"componentType":5123,"count":2916,"type":"SCALAR"},{"bufferView":16,"componentType":5126,"count":600,"type":"VEC3","min":[-0.3944999873638153,0.38449999690055847,-0.1745000034570694],"max":[0.3944999873638153,0.38999998569488525,0.15800000727176666]},{"bufferView":17,"componentType":5126,"count":600,"type":"VEC3"},{"bufferView":18,"componentType":5126,"count":600,"type":"VEC2"},{"bufferView":19,"componentType":5123,"count":2916,"type":"SCALAR"},{"bufferView":20,"componentType":5126,"count":600,"type":"VEC3","min":[-0.4000000059604645,0.3400000035762787,0.15800000727176666],"max":[0.4000000059604645,0.38999998569488525,0.18000000715255737]},{"bufferView":21,"componentType":5126,"count":600,"type":"VEC3"},{"bufferView":22,"componentType":5126,"count":600,"type":"VEC2"},{"bufferView":23,"componentType":5123,"count":2916,"type":"SCALAR"},{"bufferView":24,"componentType":5126,"count":600,"type":"VEC3","min":[-0.4000000059604645,-0.38999998569488525,0.15800000727176666],"max":[0.4000000059604645,-0.3400000035762787,0.18000000715255737]},{"bufferView":25,"componentType":5126,"count":600,"type":"VEC3"},{"bufferView":26,"componentType":5126,"count":600,"type":"VEC2"},{"bufferView":27,"componentType":5123,"count":2916,"type":"SCALAR"},{"bufferView":28,"componentType":5126,"count":600,"type":"VEC3","min":[-0.4000000059604645,-0.3400000035762787,0.15800000727176666],"max":[-0.3499999940395355,0.3400000035762787,0.18000000715255737]},{"bufferView":29,"componentType":5126,"count":600,"type":"VEC3"},{"bufferView":30,"componentType":5126,"count":600,"type":"VEC2"},{"bufferView":31,"componentType":5123,"count":2916,"type":"SCALAR"},{"bufferView":32,"componentType":5126,"count":600,"type":"VEC3","min":[0.3499999940395355,-0.3400000035762787,0.15800000727176666],"max":[0.4000000059604645,0.3400000035762787,0.18000000715255737]},{"bufferView":33,"componentType":5126,"count":600,"type":"VEC3"},{"bufferView":34,"componentType":5126,"count":600,"type":"VEC2"},{"bufferView":35,"componentType":5123,"count":2916,"type":"SCALAR"},{"bufferView":36,"componentType":5126,"count":216,"type":"VEC3","min":[-0.3944999873638153,-0.38449999690055847,0.028999999165534973],"max":[0.3944999873638153,0.38449999690055847,0.04100000113248825]},{"bufferView":37,"componentType":5126,"count":216,"type":"VEC3"},{"bufferView":38,"componentType":5126,"count":216,"type":"VEC2"},{"bufferView":39,"componentType":5123,"count":900,"type":"SCALAR"},{"bufferView":40,"componentType":5126,"count":82,"type":"VEC3","min":[-0.33000001311302185,0.03999999910593033,0.04600000008940697],"max":[-0.03999999910593033,0.33000001311302185,0.1080000028014183]},{"bufferView":41,"componentType":5126,"count":82,"type":"VEC3"},{"bufferView":42,"componentType":5126,"count":82,"type":"VEC2"},{"bufferView":43,"componentType":5123,"count":240,"type":"SCALAR"},{"bufferView":44,"componentType":5126,"count":325,"type":"VEC3","min":[-0.22699999809265137,0.14300000667572021,0.06599999964237213],"max":[-0.14300000667572021,0.22699999809265137,0.1080000028014183]},{"bufferView":45,"componentType":5126,"count":325,"type":"VEC3"},{"bufferView":46,"componentType":5126,"count":325,"type":"VEC2"},{"bufferView":47,"componentType":5123,"count":1728,"type":"SCALAR"},{"bufferView":48,"componentType":5126,"count":407,"type":"VEC3","min":[-0.34200000762939453,0.02800000086426735,0.09544049203395844],"max":[-0.02800000086426735,0.34200000762939453,0.11255951225757599]},{"bufferView":49,"componentType":5126,"count":407,"type":"VEC3"},{"bufferView":50,"componentType":5126,"count":407,"type":"VEC2"},{"bufferView":51,"componentType":5123,"count":2160,"type":"SCALAR"},{"bufferView":52,"componentType":5126,"count":82,"type":"VEC3","min":[0.03999999910593033,0.03999999910593033,0.04600000008940697],"max":[0.33000001311302185,0.33000001311302185,0.1080000028014183]},{"bufferView":53,"componentType":5126,"count":82,"type":"VEC3"},{"bufferView":54,"componentType":5126,"count":82,"type":"VEC2"},{"bufferView":55,"componentType":5123,"count":240,"type":"SCALAR"},{"bufferView":56,"componentType":5126,"count":325,"type":"VEC3","min":[0.14300000667572021,0.14300000667572021,0.06599999964237213],"max":[0.22699999809265137,0.22699999809265137,0.1080000028014183]},{"bufferView":57,"componentType":5126,"count":325,"type":"VEC3"},{"bufferView":58,"componentType":5126,"count":325,"type":"VEC2"},{"bufferView":59,"componentType":5123,"count":1728,"type":"SCALAR"},{"bufferView":60,"componentType":5126,"count":407,"type":"VEC3","min":[0.02800000086426735,0.02800000086426735,0.09544049203395844],"max":[0.34200000762939453,0.34200000762939453,0.11255951225757599]},{"bufferView":61,"componentType":5126,"count":407,"type":"VEC3"},{"bufferView":62,"componentType":5126,"count":407,"type":"VEC2"},{"bufferView":63,"componentType":5123,"count":2160,"type":"SCALAR"},{"bufferView":64,"componentType":5126,"count":82,"type":"VEC3","min":[-0.33000001311302185,-0.33000001311302185,0.04600000008940697],"max":[-0.03999999910593033,-0.03999999910593033,0.1080000028014183]},{"bufferView":65,"componentType":5126,"count":82,"type":"VEC3"},{"bufferView":66,"componentType":5126,"count":82,"type":"VEC2"},{"bufferView":67,"componentType":5123,"count":240,"type":"SCALAR"},{"bufferView":68,"componentType":5126,"count":325,"type":"VEC3","min":[-0.22699999809265137,-0.22699999809265137,0.06599999964237213],"max":[-0.14300000667572021,-0.14300000667572021,0.1080000028014183]},{"bufferView":69,"componentType":5126,"count":325,"type":"VEC3"},{"bufferView":70,"componentType":5126,"count":325,"type":"VEC2"},{"bufferView":71,"componentType":5123,"count":1728,"type":"SCALAR"},{"bufferView":72,"componentType":5126,"count":407,"type":"VEC3","min":[-0.34200000762939453,-0.34200000762939453,0.09544049203395844],"max":[-0.02800000086426735,-0.02800000086426735,0.11255951225757599]},{"bufferView":73,"componentType":5126,"count":407,"type":"VEC3"},{"bufferView":74,"componentType":5126,"count":407,"type":"VEC2"},{"bufferView":75,"componentType":5123,"count":2160,"type":"SCALAR"},{"bufferView":76,"componentType":5126,"count":82,"type":"VEC3","min":[0.03999999910593033,-0.33000001311302185,0.04600000008940697],"max":[0.33000001311302185,-0.03999999910593033,0.1080000028014183]},{"bufferView":77,"componentType":5126,"count":82,"type":"VEC3"},{"bufferView":78,"componentType":5126,"count":82,"type":"VEC2"},{"bufferView":79,"componentType":5123,"count":240,"type":"SCALAR"},{"bufferView":80,"componentType":5126,"count":325,"type":"VEC3","min":[0.14300000667572021,-0.22699999809265137,0.06599999964237213],"max":[0.22699999809265137,-0.14300000667572021,0.1080000028014183]},{"bufferView":81,"componentType":5126,"count":325,"type":"VEC3"},{"bufferView":82,"componentType":5126,"count":325,"type":"VEC2"},{"bufferView":83,"componentType":5123,"count":1728,"type":"SCALAR"},{"bufferView":84,"componentType":5126,"count":407,"type":"VEC3","min":[0.02800000086426735,-0.34200000762939453,0.09544049203395844],"max":[0.34200000762939453,-0.02800000086426735,0.11255951225757599]},{"bufferView":85,"componentType":5126,"count":407,"type":"VEC3"},{"bufferView":86,"componentType":5126,"count":407,"type":"VEC2"},{"bufferView":87,"componentType":5123,"count":2160,"type":"SCALAR"},{"bufferView":88,"componentType":5126,"count":4,"type":"VEC3","min":[-0.35199999809265137,-0.34200000762939453,0.14399999380111694],"max":[0.35199999809265137,0.34200000762939453,0.14399999380111694]},{"bufferView":89,"componentType":5126,"count":4,"type":"VEC3"},{"bufferView":90,"componentType":5126,"count":4,"type":"VEC2"},{"bufferView":91,"componentType":5123,"count":6,"type":"SCALAR"},{"bufferView":92,"componentType":5126,"count":102,"type":"VEC3","min":[-0.30000001192092896,-0.4440000057220459,-0.12800000607967377],"max":[-0.2800000011920929,-0.3880000114440918,-0.07199999690055847]},{"bufferView":93,"componentType":5126,"count":102,"type":"VEC3"},{"bufferView":94,"componentType":5126,"count":102,"type":"VEC2"},{"bufferView":95,"componentType":5123,"count":288,"type":"SCALAR"},{"bufferView":96,"componentType":5126,"count":102,"type":"VEC3","min":[-0.30000001192092896,-0.4440000057220459,0.07199999690055847],"max":[-0.2800000011920929,-0.3880000114440918,0.12800000607967377]},{"bufferView":97,"componentType":5126,"count":102,"type":"VEC3"},{"bufferView":98,"componentType":5126,"count":102,"type":"VEC2"},{"bufferView":99,"componentType":5123,"count":288,"type":"SCALAR"},{"bufferView":100,"componentType":5126,"count":102,"type":"VEC3","min":[0.2800000011920929,-0.4440000057220459,-0.12800000607967377],"max":[0.30000001192092896,-0.3880000114440918,-0.07199999690055847]},{"bufferView":101,"componentType":5126,"count":102,"type":"VEC3"},{"bufferView":102,"componentType":5126,"count":102,"type":"VEC2"},{"bufferView":103,"componentType":5123,"count":288,"type":"SCALAR"},{"bufferView":104,"componentType":5126,"count":102,"type":"VEC3","min":[0.2800000011920929,-0.4440000057220459,0.07199999690055847],"max":[0.30000001192092896,-0.3880000114440918,0.12800000607967377]},{"bufferView":105,"componentType":5126,"count":102,"type":"VEC3"},{"bufferView":106,"componentType":5126,"count":102,"type":"VEC2"},{"bufferView":107,"componentType":5123,"count":288,"type":"SCALAR"}],"bufferViews":[{"buffer":0,"byteOffset":0,"byteLength":7200,"target":34962},{"buffer":0,"byteOffset":7200,"byteLength":7200,"target":34962},{"buffer":0,"byteOffset":14400,"byteLength":4800,"target":34962},{"buffer":0,"byteOffset":19200,"byteLength":5832,"target":34963},{"buffer":0,"byteOffset":25032,"byteLength":7200,"target":34962},{"buffer":0,"byteOffset":32232,"byteLength":7200,"target":34962},{"buffer":0,"byteOffset":39432,"byteLength":4800,"target":34962},{"buffer":0,"byteOffset":44232,"byteLength":5832,"target":34963},{"buffer":0,"byteOffset":50064,"byteLength":7200,"target":34962},{"buffer":0,"byteOffset":57264,"byteLength":7200,"target":34962},{"buffer":0,"byteOffset":64464,"byteLength":4800,"target":34962},{"buffer":0,"byteOffset":69264,"byteLength":5832,"target":34963},{"buffer":0,"byteOffset":75096,"byteLength":7200,"target":34962},{"buffer":0,"byteOffset":82296,"byteLength":7200,"target":34962},{"buffer":0,"byteOffset":89496,"byteLength":4800,"target":34962},{"buffer":0,"byteOffset":94296,"byteLength":5832,"target":34963},{"buffer":0,"byteOffset":100128,"byteLength":7200,"target":34962},{"buffer":0,"byteOffset":107328,"byteLength":7200,"target":34962},{"buffer":0,"byteOffset":114528,"byteLength":4800,"target":34962},{"buffer":0,"byteOffset":119328,"byteLength":5832,"target":34963},{"buffer":0,"byteOffset":125160,"byteLength":7200,"target":34962},{"buffer":0,"byteOffset":132360,"byteLength":7200,"target":34962},{"buffer":0,"byteOffset":139560,"byteLength":4800,"target":34962},{"buffer":0,"byteOffset":144360,"byteLength":5832,"target":34963},{"buffer":0,"byteOffset":150192,"byteLength":7200,"target":34962},{"buffer":0,"byteOffset":157392,"byteLength":7200,"target":34962},{"buffer":0,"byteOffset":164592,"byteLength":4800,"target":34962},{"buffer":0,"byteOffset":169392,"byteLength":5832,"target":34963},{"buffer":0,"byteOffset":175224,"byteLength":7200,"target":34962},{"buffer":0,"byteOffset":182424,"byteLength":7200,"target":34962},{"buffer":0,"byteOffset":189624,"byteLength":4800,"target":34962},{"buffer":0,"byteOffset":194424,"byteLength":5832,"target":34963},{"buffer":0,"byteOffset":200256,"byteLength":7200,"target":34962},{"buffer":0,"byteOffset":207456,"byteLength":7200,"target":34962},{"buffer":0,"byteOffset":214656,"byteLength":4800,"target":34962},{"buffer":0,"byteOffset":219456,"byteLength":5832,"target":34963},{"buffer":0,"byteOffset":225288,"byteLength":2592,"target":34962},{"buffer":0,"byteOffset":227880,"byteLength":2592,"target":34962},{"buffer":0,"byteOffset":230472,"byteLength":1728,"target":34962},{"buffer":0,"byteOffset":232200,"byteLength":1800,"target":34963},{"buffer":0,"byteOffset":234000,"byteLength":984,"target":34962},{"buffer":0,"byteOffset":234984,"byteLength":984,"target":34962},{"buffer":0,"byteOffset":235968,"byteLength":656,"target":34962},{"buffer":0,"byteOffset":236624,"byteLength":480,"target":34963},{"buffer":0,"byteOffset":237104,"byteLength":3900,"target":34962},{"buffer":0,"byteOffset":241004,"byteLength":3900,"target":34962},{"buffer":0,"byteOffset":244904,"byteLength":2600,"target":34962},{"buffer":0,"byteOffset":247504,"byteLength":3456,"target":34963},{"buffer":0,"byteOffset":250960,"byteLength":4884,"target":34962},{"buffer":0,"byteOffset":255844,"byteLength":4884,"target":34962},{"buffer":0,"byteOffset":260728,"byteLength":3256,"target":34962},{"buffer":0,"byteOffset":263984,"byteLength":4320,"target":34963},{"buffer":0,"byteOffset":268304,"byteLength":984,"target":34962},{"buffer":0,"byteOffset":269288,"byteLength":984,"target":34962},{"buffer":0,"byteOffset":270272,"byteLength":656,"target":34962},{"buffer":0,"byteOffset":270928,"byteLength":480,"target":34963},{"buffer":0,"byteOffset":271408,"byteLength":3900,"target":34962},{"buffer":0,"byteOffset":275308,"byteLength":3900,"target":34962},{"buffer":0,"byteOffset":279208,"byteLength":2600,"target":34962},{"buffer":0,"byteOffset":281808,"byteLength":3456,"target":34963},{"buffer":0,"byteOffset":285264,"byteLength":4884,"target":34962},{"buffer":0,"byteOffset":290148,"byteLength":4884,"target":34962},{"buffer":0,"byteOffset":295032,"byteLength":3256,"target":34962},{"buffer":0,"byteOffset":298288,"byteLength":4320,"target":34963},{"buffer":0,"byteOffset":302608,"byteLength":984,"target":34962},{"buffer":0,"byteOffset":303592,"byteLength":984,"target":34962},{"buffer":0,"byteOffset":304576,"byteLength":656,"target":34962},{"buffer":0,"byteOffset":305232,"byteLength":480,"target":34963},{"buffer":0,"byteOffset":305712,"byteLength":3900,"target":34962},{"buffer":0,"byteOffset":309612,"byteLength":3900,"target":34962},{"buffer":0,"byteOffset":313512,"byteLength":2600,"target":34962},{"buffer":0,"byteOffset":316112,"byteLength":3456,"target":34963},{"buffer":0,"byteOffset":319568,"byteLength":4884,"target":34962},{"buffer":0,"byteOffset":324452,"byteLength":4884,"target":34962},{"buffer":0,"byteOffset":329336,"byteLength":3256,"target":34962},{"buffer":0,"byteOffset":332592,"byteLength":4320,"target":34963},{"buffer":0,"byteOffset":336912,"byteLength":984,"target":34962},{"buffer":0,"byteOffset":337896,"byteLength":984,"target":34962},{"buffer":0,"byteOffset":338880,"byteLength":656,"target":34962},{"buffer":0,"byteOffset":339536,"byteLength":480,"target":34963},{"buffer":0,"byteOffset":340016,"byteLength":3900,"target":34962},{"buffer":0,"byteOffset":343916,"byteLength":3900,"target":34962},{"buffer":0,"byteOffset":347816,"byteLength":2600,"target":34962},{"buffer":0,"byteOffset":350416,"byteLength":3456,"target":34963},{"buffer":0,"byteOffset":353872,"byteLength":4884,"target":34962},{"buffer":0,"byteOffset":358756,"byteLength":4884,"target":34962},{"buffer":0,"byteOffset":363640,"byteLength":3256,"target":34962},{"buffer":0,"byteOffset":366896,"byteLength":4320,"target":34963},{"buffer":0,"byteOffset":371216,"byteLength":48,"target":34962},{"buffer":0,"byteOffset":371264,"byteLength":48,"target":34962},{"buffer":0,"byteOffset":371312,"byteLength":32,"target":34962},{"buffer":0,"byteOffset":371344,"byteLength":12,"target":34963},{"buffer":0,"byteOffset":371356,"byteLength":1224,"target":34962},{"buffer":0,"byteOffset":372580,"byteLength":1224,"target":34962},{"buffer":0,"byteOffset":373804,"byteLength":816,"target":34962},{"buffer":0,"byteOffset":374620,"byteLength":576,"target":34963},{"buffer":0,"byteOffset":375196,"byteLength":1224,"target":34962},{"buffer":0,"byteOffset":376420,"byteLength":1224,"target":34962},{"buffer":0,"byteOffset":377644,"byteLength":816,"target":34962},{"buffer":0,"byteOffset":378460,"byteLength":576,"target":34963},{"buffer":0,"byteOffset":379036,"byteLength":1224,"target":34962},{"buffer":0,"byteOffset":380260,"byteLength":1224,"target":34962},{"buffer":0,"byteOffset":381484,"byteLength":816,"target":34962},{"buffer":0,"byteOffset":382300,"byteLength":576,"target":34963},{"buffer":0,"byteOffset":382876,"byteLength":1224,"target":34962},{"buffer":0,"byteOffset":384100,"byteLength":1224,"target":34962},{"buffer":0,"byteOffset":385324,"byteLength":816,"target":34962},{"buffer":0,"byteOffset":386140,"byteLength":576,"target":34963}],"buffers":[{"byteLength":386716,"uri":"amp-cabinet.bin"}],"materials":[{"name":"Tolex","pbrMetallicRoughness":{"baseColorFactor":[0.11,0.09,0.08,1],"metallicFactor":0,"roughnessFactor":0.85}},{"name":"GrilleBacking","pbrMetallicRoughness":{"baseColorFactor":[0.02,0.02,0.03,1],"metallicFactor":0,"roughnessFactor":0.95}},{"name":"SpeakerCone","pbrMetallicRoughness":{"baseColorFactor":[0.12,0.1,0.09,1],"metallicFactor":0,"roughnessFactor":0.9}},{"name":"SpeakerDust","pbrMetallicRoughness":{"baseColorFactor":[0.06,0.06,0.07,1],"metallicFactor":0.2,"roughnessFactor":0.6}},{"name":"Rubber","pbrMetallicRoughness":{"baseColorFactor":[0.04,0.04,0.045,1],"metallicFactor":0,"roughnessFactor":0.95}},{"name":"GrilleCloth","pbrMetallicRoughness":{"baseColorFactor":[0.16,0.14,0.12,1],"metallicFactor":0,"roughnessFactor":0.95}}]}
