{"asset":{"version":"2.0","generator":"soundshed-guitar generate-amp-models.js (input jack)"},"scene":0,"scenes":[{"nodes":[0,1]}],"nodes":[{"name":"JackNut","mesh":0,"extras":{"uvMode":"meters","materialSlot":"ChromeTrim"}},{"name":"JackHole","mesh":1,"extras":{"uvMode":"meters","materialSlot":"DisplayGlass"}}],"meshes":[{"name":"JackNutMesh","primitives":[{"attributes":{"POSITION":0,"NORMAL":1,"TEXCOORD_0":2},"indices":3,"material":0}]},{"name":"JackHoleMesh","primitives":[{"attributes":{"POSITION":4,"NORMAL":5,"TEXCOORD_0":6},"indices":7,"material":1}]}],"accessors":[{"bufferView":0,"componentType":5126,"count":393,"type":"VEC3","min":[-0.010499999858438969,-0.009093266911804676,0],"max":[0.010499999858438969,0.009093266911804676,0.006021690554916859]},{"bufferView":1,"componentType":5126,"count":393,"type":"VEC3"},{"bufferView":2,"componentType":5126,"count":393,"type":"VEC2"},{"bufferView":3,"componentType":5123,"count":1992,"type":"SCALAR"},{"bufferView":4,"componentType":5126,"count":76,"type":"VEC3","min":[-0.004800000227987766,-0.004800000227987766,-0.007000000216066837],"max":[0.004800000227987766,0.004800000227987766,0.003000000026077032]},{"bufferView":5,"componentType":5126,"count":76,"type":"VEC3"},{"bufferView":6,"componentType":5126,"count":76,"type":"VEC2"},{"bufferView":7,"componentType":5123,"count":216,"type":"SCALAR"}],"bufferViews":[{"buffer":0,"byteOffset":0,"byteLength":4716,"target":34962},{"buffer":0,"byteOffset":4716,"byteLength":4716,"target":34962},{"buffer":0,"byteOffset":9432,"byteLength":3144,"target":34962},{"buffer":0,"byteOffset":12576,"byteLength":3984,"target":34963},{"buffer":0,"byteOffset":16560,"byteLength":912,"target":34962},{"buffer":0,"byteOffset":17472,"byteLength":912,"target":34962},{"buffer":0,"byteOffset":18384,"byteLength":608,"target":34962},{"buffer":0,"byteOffset":18992,"byteLength":432,"target":34963}],"buffers":[{"byteLength":19424,"uri":"amp-jack.bin"}],"materials":[{"name":"ChromeTrim","pbrMetallicRoughness":{"baseColorFactor":[0.78,0.79,0.82,1],"metallicFactor":1,"roughnessFactor":0.16}},{"name":"DisplayGlass","pbrMetallicRoughness":{"baseColorFactor":[0.02,0.02,0.02,1],"metallicFactor":0,"roughnessFactor":0.18}}]}
